<svg xmlns="http://www.w3.org/2000/svg" xmlns:xlink="http://www.w3.org/1999/xlink" width="188" zoomAndPan="magnify" viewBox="0 0 141 37.5" height="50" preserveAspectRatio="xMidYMid meet" version="1.0"><defs><g/><clipPath id="ffa9ccb50f"><path d="M 0.925781 0 L 140.070312 0 L 140.070312 37.007812 L 0.925781 37.007812 Z M 0.925781 0 " clip-rule="nonzero"/></clipPath><clipPath id="0487c892e1"><path d="M 122.617188 2.839844 L 140.070312 2.839844 L 140.070312 20.296875 L 122.617188 20.296875 Z M 122.617188 2.839844 " clip-rule="nonzero"/></clipPath><clipPath id="3ca4f96d97"><path d="M 131.34375 2.839844 C 126.523438 2.839844 122.617188 6.746094 122.617188 11.566406 C 122.617188 16.386719 126.523438 20.296875 131.34375 20.296875 C 136.164062 20.296875 140.074219 16.386719 140.074219 11.566406 C 140.074219 6.746094 136.164062 2.839844 131.34375 2.839844 Z M 131.34375 2.839844 " clip-rule="nonzero"/></clipPath><clipPath id="fb22b9c067"><path d="M 0.617188 0.839844 L 18.070312 0.839844 L 18.070312 18.296875 L 0.617188 18.296875 Z M 0.617188 0.839844 " clip-rule="nonzero"/></clipPath><clipPath id="88a09b10b8"><path d="M 9.34375 0.839844 C 4.523438 0.839844 0.617188 4.746094 0.617188 9.566406 C 0.617188 14.386719 4.523438 18.296875 9.34375 18.296875 C 14.164062 18.296875 18.074219 14.386719 18.074219 9.566406 C 18.074219 4.746094 14.164062 0.839844 9.34375 0.839844 Z M 9.34375 0.839844 " clip-rule="nonzero"/></clipPath><clipPath id="715cc35ee3"><rect x="0" width="19" y="0" height="19"/></clipPath><clipPath id="5f457c5661"><path d="M 1 4 L 7 4 L 7 10.816406 L 1 10.816406 Z M 1 4 " clip-rule="nonzero"/></clipPath><clipPath id="ededf82c5f"><path d="M 0.511719 4.949219 L 4.472656 2.179688 L 9.089844 8.777344 L 5.132812 11.550781 Z M 0.511719 4.949219 " clip-rule="nonzero"/></clipPath><clipPath id="c771e86de6"><path d="M 0.511719 4.949219 L 4.472656 2.179688 L 9.089844 8.777344 L 5.132812 11.550781 Z M 0.511719 4.949219 " clip-rule="nonzero"/></clipPath><clipPath id="5b9c1101d7"><path d="M 4 2 L 10 2 L 10 9 L 4 9 Z M 4 2 " clip-rule="nonzero"/></clipPath><clipPath id="12b2ade49e"><path d="M 3.546875 2.824219 L 7.507812 0.0546875 L 12.128906 6.65625 L 8.167969 9.425781 Z M 3.546875 2.824219 " clip-rule="nonzero"/></clipPath><clipPath id="0422d8e2bd"><path d="M 3.546875 2.824219 L 7.507812 0.0546875 L 12.128906 6.65625 L 8.167969 9.425781 Z M 3.546875 2.824219 " clip-rule="nonzero"/></clipPath><clipPath id="413ae09b86"><rect x="0" width="13" y="0" height="11"/></clipPath><clipPath id="f2c9a844c5"><path d="M 0.925781 4 L 120 4 L 120 36 L 0.925781 36 Z M 0.925781 4 " clip-rule="nonzero"/></clipPath><clipPath id="8f4069aa77"><rect x="0" width="120" y="0" height="32"/></clipPath></defs><g clip-path="url(#ffa9ccb50f)"><path fill="#ffffff" d="M 0.925781 0 L 140.074219 0 L 140.074219 37.007812 L 0.925781 37.007812 Z M 0.925781 0 " fill-opacity="1" fill-rule="nonzero"/><path fill="#ffffff" d="M 0.925781 0 L 140.074219 0 L 140.074219 37.007812 L 0.925781 37.007812 Z M 0.925781 0 " fill-opacity="1" fill-rule="nonzero"/></g><g clip-path="url(#0487c892e1)"><g clip-path="url(#3ca4f96d97)"><g transform="matrix(1, 0, 0, 1, 122, 2)"><g clip-path="url(#715cc35ee3)"><g clip-path="url(#fb22b9c067)"><g clip-path="url(#88a09b10b8)"><path fill="#b4e717" d="M 0.617188 0.839844 L 18.074219 0.839844 L 18.074219 18.296875 L 0.617188 18.296875 Z M 0.617188 0.839844 " fill-opacity="1" fill-rule="nonzero"/></g></g></g></g></g></g><g transform="matrix(1, 0, 0, 1, 125, 6)"><g clip-path="url(#413ae09b86)"><g clip-path="url(#5f457c5661)"><g clip-path="url(#ededf82c5f)"><g clip-path="url(#c771e86de6)"><path fill="#054f36" d="M 6.957031 5.199219 L 2.4375 4.378906 C 1.566406 4.222656 1.183594 5.910156 2.222656 6.082031 L 5.039062 6.542969 L 4.433594 9.359375 C 4.25 10.21875 5.929688 10.539062 6.097656 9.664062 Z M 6.957031 5.199219 " fill-opacity="1" fill-rule="nonzero"/></g></g></g><g clip-path="url(#5b9c1101d7)"><g clip-path="url(#12b2ade49e)"><g clip-path="url(#0422d8e2bd)"><path fill="#054f36" d="M 9.992188 3.078125 L 5.472656 2.253906 C 4.601562 2.097656 4.21875 3.785156 5.257812 3.957031 L 8.074219 4.417969 L 7.46875 7.234375 C 7.285156 8.09375 8.964844 8.414062 9.132812 7.539062 Z M 9.992188 3.078125 " fill-opacity="1" fill-rule="nonzero"/></g></g></g></g></g><g clip-path="url(#f2c9a844c5)"><g transform="matrix(1, 0, 0, 1, 0.000000000000000111, 4)"><g clip-path="url(#8f4069aa77)"><g fill="#054f36" fill-opacity="1"><g transform="translate(0.927632, 25.333752)"><g><path d="M 8.203125 0.28125 C 6.773438 0.28125 5.535156 0.0546875 4.484375 -0.390625 C 3.429688 -0.847656 2.613281 -1.503906 2.03125 -2.359375 C 1.445312 -3.222656 1.132812 -4.265625 1.09375 -5.484375 L 4.3125 -5.484375 C 4.351562 -4.828125 4.539062 -4.273438 4.875 -3.828125 C 5.21875 -3.390625 5.675781 -3.054688 6.25 -2.828125 C 6.832031 -2.609375 7.476562 -2.5 8.1875 -2.5 C 8.914062 -2.5 9.554688 -2.601562 10.109375 -2.8125 C 10.660156 -3.03125 11.09375 -3.335938 11.40625 -3.734375 C 11.71875 -4.140625 11.875 -4.601562 11.875 -5.125 C 11.875 -5.59375 11.738281 -5.976562 11.46875 -6.28125 C 11.207031 -6.59375 10.828125 -6.859375 10.328125 -7.078125 C 9.835938 -7.296875 9.25 -7.492188 8.5625 -7.671875 L 6.515625 -8.1875 C 4.929688 -8.570312 3.707031 -9.164062 2.84375 -9.96875 C 1.988281 -10.769531 1.5625 -11.8125 1.5625 -13.09375 C 1.5625 -14.175781 1.847656 -15.117188 2.421875 -15.921875 C 3.003906 -16.734375 3.796875 -17.363281 4.796875 -17.8125 C 5.804688 -18.257812 6.953125 -18.484375 8.234375 -18.484375 C 9.546875 -18.484375 10.691406 -18.253906 11.671875 -17.796875 C 12.648438 -17.347656 13.414062 -16.71875 13.96875 -15.90625 C 14.519531 -15.101562 14.804688 -14.171875 14.828125 -13.109375 L 11.6875 -13.109375 C 11.601562 -13.929688 11.25 -14.570312 10.625 -15.03125 C 10.007812 -15.488281 9.195312 -15.71875 8.1875 -15.71875 C 7.507812 -15.71875 6.921875 -15.609375 6.421875 -15.390625 C 5.921875 -15.179688 5.535156 -14.894531 5.265625 -14.53125 C 4.992188 -14.164062 4.859375 -13.75 4.859375 -13.28125 C 4.859375 -12.789062 5.003906 -12.382812 5.296875 -12.0625 C 5.585938 -11.75 5.972656 -11.488281 6.453125 -11.28125 C 6.929688 -11.082031 7.453125 -10.914062 8.015625 -10.78125 L 9.75 -10.34375 C 10.476562 -10.175781 11.164062 -9.953125 11.8125 -9.671875 C 12.46875 -9.398438 13.039062 -9.054688 13.53125 -8.640625 C 14.03125 -8.222656 14.421875 -7.726562 14.703125 -7.15625 C 14.984375 -6.582031 15.125 -5.914062 15.125 -5.15625 C 15.125 -4.0625 14.847656 -3.109375 14.296875 -2.296875 C 13.753906 -1.484375 12.96875 -0.847656 11.9375 -0.390625 C 10.90625 0.0546875 9.660156 0.28125 8.203125 0.28125 Z M 8.203125 0.28125 "/></g></g></g><g fill="#054f36" fill-opacity="1"><g transform="translate(16.594676, 25.333752)"><g><path d="M 8.046875 -13.5 L 8.046875 -11.015625 L 0.234375 -11.015625 L 0.234375 -13.5 Z M 2.25 -16.8125 L 5.40625 -16.8125 L 5.40625 -3.8125 C 5.40625 -3.332031 5.507812 -2.984375 5.71875 -2.765625 C 5.925781 -2.546875 6.273438 -2.4375 6.765625 -2.4375 C 6.921875 -2.4375 7.117188 -2.445312 7.359375 -2.46875 C 7.609375 -2.488281 7.804688 -2.515625 7.953125 -2.546875 L 8.34375 -0.078125 C 8.019531 -0.00390625 7.675781 0.046875 7.3125 0.078125 C 6.957031 0.117188 6.613281 0.140625 6.28125 0.140625 C 4.96875 0.140625 3.96875 -0.171875 3.28125 -0.796875 C 2.59375 -1.421875 2.25 -2.328125 2.25 -3.515625 Z M 2.25 -16.8125 "/></g></g></g><g fill="#054f36" fill-opacity="1"><g transform="translate(24.867637, 25.333752)"><g><path d="M 1.609375 0 L 1.609375 -13.5 L 4.671875 -13.5 L 4.671875 -11.25 L 4.796875 -11.25 C 5.035156 -12.03125 5.445312 -12.628906 6.03125 -13.046875 C 6.625 -13.460938 7.320312 -13.671875 8.125 -13.671875 C 8.3125 -13.671875 8.507812 -13.664062 8.71875 -13.65625 C 8.925781 -13.644531 9.101562 -13.625 9.25 -13.59375 L 9.25 -10.71875 C 9.113281 -10.75 8.898438 -10.78125 8.609375 -10.8125 C 8.328125 -10.84375 8.039062 -10.859375 7.75 -10.859375 C 7.1875 -10.859375 6.675781 -10.734375 6.21875 -10.484375 C 5.769531 -10.242188 5.414062 -9.898438 5.15625 -9.453125 C 4.894531 -9.015625 4.765625 -8.488281 4.765625 -7.875 L 4.765625 0 Z M 1.609375 0 "/></g></g></g><g fill="#054f36" fill-opacity="1"><g transform="translate(33.788241, 25.333752)"><g><path d="M 5.46875 0.265625 C 4.601562 0.265625 3.828125 0.113281 3.140625 -0.1875 C 2.453125 -0.5 1.90625 -0.957031 1.5 -1.5625 C 1.101562 -2.164062 0.90625 -2.910156 0.90625 -3.796875 C 0.90625 -4.566406 1.046875 -5.195312 1.328125 -5.6875 C 1.617188 -6.1875 2.007812 -6.585938 2.5 -6.890625 C 2.988281 -7.191406 3.539062 -7.414062 4.15625 -7.5625 C 4.78125 -7.71875 5.425781 -7.832031 6.09375 -7.90625 C 6.882812 -7.988281 7.523438 -8.0625 8.015625 -8.125 C 8.503906 -8.195312 8.859375 -8.304688 9.078125 -8.453125 C 9.304688 -8.597656 9.421875 -8.820312 9.421875 -9.125 L 9.421875 -9.203125 C 9.421875 -9.628906 9.328125 -9.992188 9.140625 -10.296875 C 8.960938 -10.609375 8.695312 -10.84375 8.34375 -11 C 8 -11.164062 7.566406 -11.25 7.046875 -11.25 C 6.535156 -11.25 6.082031 -11.171875 5.6875 -11.015625 C 5.300781 -10.859375 4.988281 -10.644531 4.75 -10.375 C 4.507812 -10.113281 4.34375 -9.820312 4.25 -9.5 L 1.296875 -9.96875 C 1.515625 -10.789062 1.894531 -11.476562 2.4375 -12.03125 C 2.976562 -12.582031 3.640625 -13 4.421875 -13.28125 C 5.210938 -13.5625 6.09375 -13.703125 7.0625 -13.703125 C 7.738281 -13.703125 8.40625 -13.617188 9.0625 -13.453125 C 9.71875 -13.285156 10.3125 -13.019531 10.84375 -12.65625 C 11.375 -12.300781 11.796875 -11.828125 12.109375 -11.234375 C 12.421875 -10.640625 12.578125 -9.914062 12.578125 -9.0625 L 12.578125 0 L 9.546875 0 L 9.546875 -1.875 L 9.421875 -1.875 C 9.234375 -1.488281 8.960938 -1.128906 8.609375 -0.796875 C 8.253906 -0.472656 7.816406 -0.210938 7.296875 -0.015625 C 6.785156 0.171875 6.175781 0.265625 5.46875 0.265625 Z M 6.28125 -2.078125 C 6.925781 -2.078125 7.488281 -2.203125 7.96875 -2.453125 C 8.445312 -2.710938 8.8125 -3.054688 9.0625 -3.484375 C 9.320312 -3.910156 9.453125 -4.375 9.453125 -4.875 L 9.453125 -6.4375 C 9.347656 -6.363281 9.175781 -6.289062 8.9375 -6.21875 C 8.707031 -6.144531 8.441406 -6.082031 8.140625 -6.03125 C 7.847656 -5.976562 7.550781 -5.929688 7.25 -5.890625 C 6.957031 -5.847656 6.695312 -5.8125 6.46875 -5.78125 C 6 -5.71875 5.578125 -5.609375 5.203125 -5.453125 C 4.828125 -5.304688 4.523438 -5.101562 4.296875 -4.84375 C 4.078125 -4.59375 3.96875 -4.257812 3.96875 -3.84375 C 3.96875 -3.457031 4.066406 -3.132812 4.265625 -2.875 C 4.460938 -2.613281 4.734375 -2.414062 5.078125 -2.28125 C 5.421875 -2.144531 5.820312 -2.078125 6.28125 -2.078125 Z M 6.28125 -2.078125 "/></g></g></g><g fill="#054f36" fill-opacity="1"><g transform="translate(47.426497, 25.333752)"><g><path d="M 8.046875 -13.5 L 8.046875 -11.015625 L 0.234375 -11.015625 L 0.234375 -13.5 Z M 2.25 -16.8125 L 5.40625 -16.8125 L 5.40625 -3.8125 C 5.40625 -3.332031 5.507812 -2.984375 5.71875 -2.765625 C 5.925781 -2.546875 6.273438 -2.4375 6.765625 -2.4375 C 6.921875 -2.4375 7.117188 -2.445312 7.359375 -2.46875 C 7.609375 -2.488281 7.804688 -2.515625 7.953125 -2.546875 L 8.34375 -0.078125 C 8.019531 -0.00390625 7.675781 0.046875 7.3125 0.078125 C 6.957031 0.117188 6.613281 0.140625 6.28125 0.140625 C 4.96875 0.140625 3.96875 -0.171875 3.28125 -0.796875 C 2.59375 -1.421875 2.25 -2.328125 2.25 -3.515625 Z M 2.25 -16.8125 "/></g></g></g><g fill="#054f36" fill-opacity="1"><g transform="translate(55.467145, 25.333752)"><g><path d="M 7.578125 0.28125 C 6.222656 0.28125 5.054688 -0.00390625 4.078125 -0.578125 C 3.097656 -1.160156 2.34375 -1.972656 1.8125 -3.015625 C 1.28125 -4.066406 1.015625 -5.289062 1.015625 -6.6875 C 1.015625 -8.0625 1.273438 -9.273438 1.796875 -10.328125 C 2.328125 -11.390625 3.070312 -12.21875 4.03125 -12.8125 C 4.988281 -13.40625 6.109375 -13.703125 7.390625 -13.703125 C 8.242188 -13.703125 9.046875 -13.5625 9.796875 -13.28125 C 10.554688 -13 11.222656 -12.570312 11.796875 -12 C 12.367188 -11.4375 12.816406 -10.722656 13.140625 -9.859375 C 13.472656 -9.003906 13.640625 -8 13.640625 -6.84375 L 13.640625 -5.875 L 2.453125 -5.875 L 2.453125 -8.03125 L 12.0625 -8.03125 L 10.59375 -7.40625 C 10.59375 -8.175781 10.46875 -8.84375 10.21875 -9.40625 C 9.976562 -9.976562 9.625 -10.421875 9.15625 -10.734375 C 8.6875 -11.054688 8.101562 -11.21875 7.40625 -11.21875 C 6.726562 -11.21875 6.144531 -11.054688 5.65625 -10.734375 C 5.164062 -10.421875 4.789062 -9.988281 4.53125 -9.4375 C 4.269531 -8.882812 4.140625 -8.265625 4.140625 -7.578125 L 4.140625 -6.125 C 4.140625 -5.289062 4.28125 -4.578125 4.5625 -3.984375 C 4.851562 -3.398438 5.257812 -2.957031 5.78125 -2.65625 C 6.3125 -2.351562 6.925781 -2.203125 7.625 -2.203125 C 8.101562 -2.203125 8.53125 -2.269531 8.90625 -2.40625 C 9.289062 -2.550781 9.617188 -2.753906 9.890625 -3.015625 C 10.171875 -3.273438 10.378906 -3.597656 10.515625 -3.984375 L 13.421875 -3.515625 C 13.222656 -2.765625 12.851562 -2.101562 12.3125 -1.53125 C 11.78125 -0.957031 11.109375 -0.507812 10.296875 -0.1875 C 9.492188 0.125 8.585938 0.28125 7.578125 0.28125 Z M 7.578125 0.28125 "/></g></g></g><g fill="#054f36" fill-opacity="1"><g transform="translate(69.508708, 25.333752)"><g><path d="M 7.515625 5.375 C 6.398438 5.375 5.4375 5.226562 4.625 4.9375 C 3.8125 4.65625 3.148438 4.257812 2.640625 3.75 C 2.128906 3.238281 1.769531 2.65625 1.5625 2 L 4.34375 1.265625 C 4.46875 1.535156 4.660156 1.800781 4.921875 2.0625 C 5.179688 2.332031 5.519531 2.550781 5.9375 2.71875 C 6.351562 2.882812 6.875 2.96875 7.5 2.96875 C 8.476562 2.96875 9.253906 2.726562 9.828125 2.25 C 10.410156 1.78125 10.703125 1.054688 10.703125 0.078125 L 10.703125 -2.375 L 10.5 -2.375 C 10.3125 -2.007812 10.054688 -1.65625 9.734375 -1.3125 C 9.421875 -0.96875 9.007812 -0.6875 8.5 -0.46875 C 7.988281 -0.25 7.367188 -0.140625 6.640625 -0.140625 C 5.566406 -0.140625 4.609375 -0.390625 3.765625 -0.890625 C 2.921875 -1.398438 2.25 -2.148438 1.75 -3.140625 C 1.257812 -4.140625 1.015625 -5.351562 1.015625 -6.78125 C 1.015625 -8.25 1.257812 -9.492188 1.75 -10.515625 C 2.25 -11.546875 2.925781 -12.332031 3.78125 -12.875 C 4.632812 -13.425781 5.59375 -13.703125 6.65625 -13.703125 C 7.40625 -13.703125 8.035156 -13.578125 8.546875 -13.328125 C 9.054688 -13.085938 9.476562 -12.78125 9.8125 -12.40625 C 10.144531 -12.039062 10.410156 -11.675781 10.609375 -11.3125 L 10.734375 -11.3125 L 10.734375 -13.5 L 13.84375 -13.5 L 13.84375 -0.03125 C 13.84375 1.207031 13.566406 2.222656 13.015625 3.015625 C 12.460938 3.816406 11.707031 4.410156 10.75 4.796875 C 9.800781 5.179688 8.722656 5.375 7.515625 5.375 Z M 7.484375 -2.65625 C 8.179688 -2.65625 8.769531 -2.820312 9.25 -3.15625 C 9.738281 -3.488281 10.109375 -3.96875 10.359375 -4.59375 C 10.617188 -5.21875 10.75 -5.960938 10.75 -6.828125 C 10.75 -7.679688 10.617188 -8.425781 10.359375 -9.0625 C 10.109375 -9.707031 9.738281 -10.207031 9.25 -10.5625 C 8.769531 -10.925781 8.179688 -11.109375 7.484375 -11.109375 C 6.785156 -11.109375 6.191406 -10.921875 5.703125 -10.546875 C 5.222656 -10.179688 4.859375 -9.675781 4.609375 -9.03125 C 4.367188 -8.394531 4.25 -7.660156 4.25 -6.828125 C 4.25 -5.972656 4.375 -5.234375 4.625 -4.609375 C 4.875 -3.992188 5.238281 -3.515625 5.71875 -3.171875 C 6.195312 -2.828125 6.785156 -2.65625 7.484375 -2.65625 Z M 7.484375 -2.65625 "/></g></g></g><g fill="#054f36" fill-opacity="1"><g transform="translate(84.405784, 25.333752)"><g><path d="M 1.609375 0 L 1.609375 -13.5 L 4.765625 -13.5 L 4.765625 0 Z M 3.1875 -15.4375 C 2.675781 -15.4375 2.238281 -15.609375 1.875 -15.953125 C 1.519531 -16.296875 1.34375 -16.707031 1.34375 -17.1875 C 1.34375 -17.675781 1.519531 -18.085938 1.875 -18.421875 C 2.238281 -18.753906 2.675781 -18.921875 3.1875 -18.921875 C 3.695312 -18.921875 4.132812 -18.753906 4.5 -18.421875 C 4.863281 -18.085938 5.046875 -17.675781 5.046875 -17.1875 C 5.046875 -16.707031 4.863281 -16.296875 4.5 -15.953125 C 4.132812 -15.609375 3.695312 -15.4375 3.1875 -15.4375 Z M 3.1875 -15.4375 "/></g></g></g><g fill="#054f36" fill-opacity="1"><g transform="translate(90.234422, 25.333752)"><g><path d="M 4.765625 -7.859375 L 4.765625 0 L 1.609375 0 L 1.609375 -13.5 L 4.640625 -13.5 L 4.671875 -10.15625 L 4.34375 -10.15625 C 4.726562 -11.320312 5.289062 -12.203125 6.03125 -12.796875 C 6.78125 -13.398438 7.710938 -13.703125 8.828125 -13.703125 C 9.753906 -13.703125 10.566406 -13.5 11.265625 -13.09375 C 11.972656 -12.695312 12.519531 -12.113281 12.90625 -11.34375 C 13.289062 -10.582031 13.484375 -9.648438 13.484375 -8.546875 L 13.484375 0 L 10.328125 0 L 10.328125 -8.0625 C 10.328125 -8.988281 10.09375 -9.707031 9.625 -10.21875 C 9.15625 -10.738281 8.503906 -11 7.671875 -11 C 7.117188 -11 6.625 -10.875 6.1875 -10.625 C 5.75 -10.382812 5.398438 -10.03125 5.140625 -9.5625 C 4.890625 -9.101562 4.765625 -8.535156 4.765625 -7.859375 Z M 4.765625 -7.859375 "/></g></g></g><g fill="#054f36" fill-opacity="1"><g transform="translate(104.777078, 25.333752)"><g><path d="M 7.578125 0.28125 C 6.222656 0.28125 5.054688 -0.00390625 4.078125 -0.578125 C 3.097656 -1.160156 2.34375 -1.972656 1.8125 -3.015625 C 1.28125 -4.066406 1.015625 -5.289062 1.015625 -6.6875 C 1.015625 -8.0625 1.273438 -9.273438 1.796875 -10.328125 C 2.328125 -11.390625 3.070312 -12.21875 4.03125 -12.8125 C 4.988281 -13.40625 6.109375 -13.703125 7.390625 -13.703125 C 8.242188 -13.703125 9.046875 -13.5625 9.796875 -13.28125 C 10.554688 -13 11.222656 -12.570312 11.796875 -12 C 12.367188 -11.4375 12.816406 -10.722656 13.140625 -9.859375 C 13.472656 -9.003906 13.640625 -8 13.640625 -6.84375 L 13.640625 -5.875 L 2.453125 -5.875 L 2.453125 -8.03125 L 12.0625 -8.03125 L 10.59375 -7.40625 C 10.59375 -8.175781 10.46875 -8.84375 10.21875 -9.40625 C 9.976562 -9.976562 9.625 -10.421875 9.15625 -10.734375 C 8.6875 -11.054688 8.101562 -11.21875 7.40625 -11.21875 C 6.726562 -11.21875 6.144531 -11.054688 5.65625 -10.734375 C 5.164062 -10.421875 4.789062 -9.988281 4.53125 -9.4375 C 4.269531 -8.882812 4.140625 -8.265625 4.140625 -7.578125 L 4.140625 -6.125 C 4.140625 -5.289062 4.28125 -4.578125 4.5625 -3.984375 C 4.851562 -3.398438 5.257812 -2.957031 5.78125 -2.65625 C 6.3125 -2.351562 6.925781 -2.203125 7.625 -2.203125 C 8.101562 -2.203125 8.53125 -2.269531 8.90625 -2.40625 C 9.289062 -2.550781 9.617188 -2.753906 9.890625 -3.015625 C 10.171875 -3.273438 10.378906 -3.597656 10.515625 -3.984375 L 13.421875 -3.515625 C 13.222656 -2.765625 12.851562 -2.101562 12.3125 -1.53125 C 11.78125 -0.957031 11.109375 -0.507812 10.296875 -0.1875 C 9.492188 0.125 8.585938 0.28125 7.578125 0.28125 Z M 7.578125 0.28125 "/></g></g></g></g></g></g></svg>