<svg xmlns="http://www.w3.org/2000/svg" xmlns:xlink="http://www.w3.org/1999/xlink" width="500" zoomAndPan="magnify" viewBox="0 0 375 374.999991" height="500" preserveAspectRatio="xMidYMid meet" version="1.0"><defs><clipPath id="cb68289028"><path d="M 41.34375 41.34375 L 333.65625 41.34375 L 333.65625 333.65625 L 41.34375 333.65625 Z M 41.34375 41.34375 " clip-rule="nonzero"/></clipPath><clipPath id="f58b8cf510"><path d="M 187.5 41.34375 C 106.78125 41.34375 41.34375 106.78125 41.34375 187.5 C 41.34375 268.21875 106.78125 333.65625 187.5 333.65625 C 268.21875 333.65625 333.65625 268.21875 333.65625 187.5 C 333.65625 106.78125 268.21875 41.34375 187.5 41.34375 Z M 187.5 41.34375 " clip-rule="nonzero"/></clipPath><clipPath id="6b271ba42b"><path d="M 0.34375 0.34375 L 292.65625 0.34375 L 292.65625 292.65625 L 0.34375 292.65625 Z M 0.34375 0.34375 " clip-rule="nonzero"/></clipPath><clipPath id="50bf2e6c99"><path d="M 146.5 0.34375 C 65.78125 0.34375 0.34375 65.78125 0.34375 146.5 C 0.34375 227.21875 65.78125 292.65625 146.5 292.65625 C 227.21875 292.65625 292.65625 227.21875 292.65625 146.5 C 292.65625 65.78125 227.21875 0.34375 146.5 0.34375 Z M 146.5 0.34375 " clip-rule="nonzero"/></clipPath><clipPath id="a1903ee6bf"><rect x="0" width="293" y="0" height="293"/></clipPath><clipPath id="d556dd56f9"><path d="M 7 69 L 98 69 L 98 167 L 7 167 Z M 7 69 " clip-rule="nonzero"/></clipPath><clipPath id="0b4b0e54c9"><path d="M -10.171875 79.148438 L 56.148438 32.734375 L 133.503906 143.265625 L 67.183594 189.675781 Z M -10.171875 79.148438 " clip-rule="nonzero"/></clipPath><clipPath id="48d7407046"><path d="M -10.171875 79.148438 L 56.148438 32.734375 L 133.503906 143.265625 L 67.183594 189.675781 Z M -10.171875 79.148438 " clip-rule="nonzero"/></clipPath><clipPath id="ca39a5b2a7"><path d="M 58 33 L 149 33 L 149 132 L 58 132 Z M 58 33 " clip-rule="nonzero"/></clipPath><clipPath id="55744d4cd2"><path d="M 40.664062 43.570312 L 106.984375 -2.839844 L 184.335938 107.6875 L 118.019531 154.101562 Z M 40.664062 43.570312 " clip-rule="nonzero"/></clipPath><clipPath id="7e4582c4f8"><path d="M 40.664062 43.570312 L 106.984375 -2.839844 L 184.335938 107.6875 L 118.019531 154.101562 Z M 40.664062 43.570312 " clip-rule="nonzero"/></clipPath><clipPath id="ed25505722"><rect x="0" width="181" y="0" height="174"/></clipPath></defs><rect x="-37.5" width="450" fill="#ffffff" y="-37.499999" height="449.999989" fill-opacity="1"/><rect x="-37.5" width="450" fill="#ffffff" y="-37.499999" height="449.999989" fill-opacity="1"/><g clip-path="url(#cb68289028)"><g clip-path="url(#f58b8cf510)"><g transform="matrix(1, 0, 0, 1, 41, 41)"><g clip-path="url(#a1903ee6bf)"><g clip-path="url(#6b271ba42b)"><g clip-path="url(#50bf2e6c99)"><path fill="#b4e717" d="M 0.34375 0.34375 L 292.65625 0.34375 L 292.65625 292.65625 L 0.34375 292.65625 Z M 0.34375 0.34375 " fill-opacity="1" fill-rule="nonzero"/></g></g></g></g></g></g><g transform="matrix(1, 0, 0, 1, 100, 98)"><g clip-path="url(#ed25505722)"><g clip-path="url(#d556dd56f9)"><g clip-path="url(#0b4b0e54c9)"><g clip-path="url(#48d7407046)"><path fill="#1c4b42" d="M 97.742188 83.347656 L 22.089844 69.59375 C 7.476562 66.9375 1.09375 95.238281 18.449219 98.082031 L 65.636719 105.820312 L 55.523438 152.984375 C 52.445312 167.347656 80.539062 172.738281 83.355469 158.097656 Z M 97.742188 83.347656 " fill-opacity="1" fill-rule="nonzero"/></g></g></g><g clip-path="url(#ca39a5b2a7)"><g clip-path="url(#55744d4cd2)"><g clip-path="url(#7e4582c4f8)"><path fill="#1c4b42" d="M 148.578125 47.773438 L 72.925781 34.019531 C 58.3125 31.359375 51.925781 59.660156 69.28125 62.507812 L 116.46875 70.246094 L 106.355469 117.410156 C 103.277344 131.769531 131.371094 137.160156 134.191406 122.523438 Z M 148.578125 47.773438 " fill-opacity="1" fill-rule="nonzero"/></g></g></g></g></g></svg>